<svg width="80" height="80" viewBox="0 0 80 80" fill="none" xmlns="http://www.w3.org/2000/svg">
<path d="M0 40C0 17.9086 17.9086 0 40 0C62.0914 0 80 17.9086 80 40C80 62.0914 62.0914 80 40 80C17.9086 80 0 62.0914 0 40Z" fill="#DCFCE7"/>
<path d="M40 60C51.0457 60 60 51.0457 60 40C60 28.9543 51.0457 20 40 20C28.9543 20 20 28.9543 20 40C20 51.0457 28.9543 60 40 60Z" stroke="#00A63E" stroke-width="4" stroke-linecap="round" stroke-linejoin="round"/>
<path d="M34 40L38 44L46 36" stroke="#00A63E" stroke-width="4" stroke-linecap="round" stroke-linejoin="round"/>
</svg>
